<svg xmlns="http://www.w3.org/2000/svg" viewBox="0 0 1114.83 1333.33" shape-rendering="geometricPrecision" text-rendering="geometricPrecision" image-rendering="optimizeQuality" fill-rule="evenodd" clip-rule="evenodd"><path d="M339.04 401.57c-12.1.47-21.25 2.98-27.52 7.19-3.58 2.39-6.2 5.46-7.88 9.1-1.88 4.05-2.74 8.97-2.58 14.63.48 16.6 9.18 38.3 26 63.31l.24.36 54.58 86.79c21.89 34.81 44.82 70.27 73.34 96.35 27.41 25.06 60.69 42.03 104.66 42.14 47.63.12 82.48-17.51 110.74-43.98 29.42-27.54 52.61-65.27 75.48-102.93l61.48-101.26c11.46-26.14 15.64-43.66 13.01-53.91-1.56-6.11-8.3-9.1-19.8-9.68-2.44-.12-4.95-.15-7.49-.07-2.74.08-5.61.26-8.59.54-1.64.15-3.23.04-4.74-.31-5.47.3-11.11-.07-16.86-.92l21.06-93.18c-156.22 24.63-273.07-91.41-438.21-23.21l11.9 109.83c-6.67.3-12.97.08-18.82-.81v.01h.01zm399.54 735.41v52.45l-107.71 61.05v-61.05l69.36-26.37-69.36-26.08v-61.05l107.71 61.05zm-186.55 130.69h-45.88l56.65-220.69h45.89l-56.66 220.69zm-76.69-130.69l-69.36 26.08 69.36 26.37v61.05l-107.71-61.05v-52.45l107.71-61.05v61.05zm346.42-754.97l-.01-.02v.01c2.29-95.19 19.74-191.25-47.93-269.28C725.52 57.03 599.82 4.57 518.38.1c-34.35-1.88-21.24 26.15-55.23 37.89-70.08 24.2-131.45 75.62-151.42 147.02-3.3 11.77-5.56 23.56-6.72 35.34-2.28 49.65-.96 108.96 2.57 156.03-4.87 1.84-9.28 4.09-13.23 6.75-8.43 5.67-14.68 13.01-18.76 21.79-3.87 8.36-5.66 17.89-5.35 28.4.63 22.31 11 49.52 30.96 79.28l54.58 86.78c19.09 30.37 39.02 61.26 63.36 87.42-1.17 3.46.07-.3-.67 1.96-6.72 20.36-17.96 54.48-28.08 73.52-66.25 43.39-218.11 54.55-277.01 87.41-160.81 89.65-102.79 274.42-104.67 427.1 3.19 34.04 22.51 53.64 60.49 56.54h41.12l-45.07-341.8c-3.5-26.63 15.4-48.41 38.67-48.41h460.57c-8.59-55.32-151.64-108.7-156.83-150.38a16.15 16.15 0 003.83-3.78c12.16-16.88 24.78-52.24 33.39-77.95 30.67 24.87 67.59 41.13 115 41.24 42.56.11 76.54-11.68 105.05-30.89 2.78 4 5.67 8.25 8.69 12.68 13.57 19.92 29.38 43.13 44.18 59.56-3.15 47.39-127.29 47.94-141.41 149.51h442.04c23.28 0 42.18 21.79 38.67 48.41l-45.06 341.81h41.11c37.99-2.91 57.31-22.51 60.5-56.54-10.71-144.23 43.29-344.61-104.67-427.1-58.14-32.42-206.87-43.73-274.41-85.76-11.42-14.09-23.7-32.11-34.5-47.95-3.52-5.16-6.89-10.1-9.99-14.59l1.57-1.46c32.49-30.41 56.83-69.99 80.8-109.47l62.19-102.43c.35-.58.66-1.17.92-1.78l.04.03c14.58-33.09 19.35-57.35 14.96-74.55-3.97-15.54-13.67-25.14-28.8-29.74z"/></svg>