<svg xmlns="http://www.w3.org/2000/svg" width="64" height="64" shape-rendering="geometricPrecision" text-rendering="geometricPrecision" image-rendering="optimizeQuality" fill-rule="evenodd" clip-rule="evenodd" viewBox="0 0 640 640"><path d="M554.192 295.598h-28.831v85.997H554.275v.083c5.917-.012 11.397-2.528 15.425-6.555l.744-.685c3.532-3.886 5.717-9.012 5.752-14.564h-.07v-.165h.07v-42.213h-.07v-.083h.07c-.012-5.964-2.48-11.433-6.472-15.402-3.98-3.968-9.426-6.437-15.367-6.484v.07h-.165zM189.333 3.201c9.118-6.024 21.26-3.295 27.107 6.095 5.846 9.39 3.2 21.921-5.918 27.945-16.618 10.984-16.7 19.524-11.61 27.213 4.382 6.638 11.15 13.842 17.882 21 9.343 9.945 18.673 19.878 25.122 31.394 15.249 27.237 13.926 54.331-34.11 81.214-9.485 5.327-21.402 1.712-26.564-8.08-5.161-9.802-1.653-22.074 7.831-27.401 20.067-11.22 22.583-19.04 18.898-25.63-3.839-6.85-11.551-15.071-19.288-23.292-7.984-8.492-16.015-17.043-22.193-26.398-17.965-27.166-21.189-54.957 22.843-84.06zm220.881 0c9.118-6.024 21.26-3.295 27.107 6.095 5.846 9.39 3.2 21.921-5.918 27.945-16.63 10.984-16.689 19.524-11.622 27.213 4.382 6.638 11.162 13.842 17.882 21 9.343 9.945 18.685 19.878 25.123 31.394 15.248 27.248 13.949 54.331-34.087 81.214-9.497 5.327-21.402 1.712-26.564-8.08-5.161-9.802-1.653-22.074 7.831-27.401 20.055-11.22 22.571-19.028 18.874-25.63-3.827-6.85-11.551-15.071-19.276-23.292-7.984-8.492-16.015-17.043-22.193-26.398-17.965-27.19-21.2-54.945 22.843-84.06zm-110.423 0c9.118-6.024 21.237-3.295 27.095 6.095 5.846 9.39 3.2 21.921-5.918 27.945-16.618 10.984-16.7 19.524-11.61 27.213 4.382 6.638 11.138 13.842 17.87 21 9.343 9.945 18.674 19.878 25.123 31.394 15.248 27.237 13.937 54.343-34.075 81.214-9.497 5.327-21.402 1.712-26.564-8.08-5.173-9.802-1.665-22.074 7.831-27.401 20.044-11.22 22.548-19.04 18.874-25.63-3.827-6.85-11.551-15.071-19.287-23.292-7.973-8.492-16.016-17.043-22.194-26.398-17.964-27.166-21.177-54.957 22.855-84.06zM31.807 585.114h188.105c-63.816-31.914-107.93-97.926-107.93-173.801V254.78h388.422v2.043c1.665-.46 3.437-.673 5.244-.673h48.721v.083h.083c16.748.047 31.984 6.897 43.004 17.905 11.103 11.068 18.024 26.398 18.048 43.277h.07v.082h-.07v41.47l.012.743h.059v.166h-.071v.082c-.06 16.052-6.355 30.721-16.56 41.6-.401.507-.873.98-1.346 1.452-11.043 11.032-26.386 17.93-43.311 17.953v.083h-48.639c-1.89 0-3.744-.307-5.48-.803-3.307 72.071-46.347 134.21-107.635 164.872h198.676c4.051 0 7.37 3.956 7.37 8.834v37.23c0 4.877-3.319 8.822-7.37 8.822H31.808c-4.063 0-7.382-3.945-7.382-8.823V593.95c0-4.878 3.319-8.834 7.382-8.834z"/></svg>